# xmcd
#
# Track frame offsets:
#	150
#	11497
#	21020
#	36660
#	52722
#	67512
#	83260
#	95497
#	111760
#	125602
#	140377
#	152295
#	169555
#	183542
#	198545
#	213355
#	230750
#	245702
#
# Disc length: 3438 seconds
#
# Revision: 0
# Processed by: cddbd v1.5.2PL0 Copyright (c) Steve Scherf et al.
# Submitted via: EasyCDDAExtractor 15.0.0.1
#
DISCID=e30d6c12
DTITLE=Zé de Souza and Ronyel - Nos braços da outra
DYEAR=1900
DGENRE=
TTITLE0=Nos bracos da outra
TTITLE1=E so felicidade
TTITLE2=No ponteio da viola
TTITLE3=As horas
TTITLE4=Nova paixao
TTITLE5=Boca bonita
TTITLE6=Mala amarela
TTITLE7=Joao boiadeiro
TTITLE8=Em cada coracao uma saudade
TTITLE9=Colo da noite
TTITLE10=Nasci pra te amar
TTITLE11=Estrela de ouro
TTITLE12=Chico mineiro
TTITLE13=Amor em secredo
TTITLE14=Berrante da madalena
TTITLE15=Anel de noivado
TTITLE16=Peito sadio
TTITLE17=Carta fechada
EXTD=
EXTT0=
EXTT1=
EXTT2=
EXTT3=
EXTT4=
EXTT5=
EXTT6=
EXTT7=
EXTT8=
EXTT9=
EXTT10=
EXTT11=
EXTT12=
EXTT13=
EXTT14=
EXTT15=
EXTT16=
EXTT17=
PLAYORDER=
